<svg xmlns="http://www.w3.org/2000/svg" width="189" height="35" fill="none" viewBox="0 0 189 35">
  <path fill="#3B4252" d="M9.3 7.105c1.22 0 2.339.305 3.358.915a11.904 11.904 0 0 1 2.69 2.144l.087-1.793c0-.363.118-.674.352-.932a1.16 1.16 0 0 1 .897-.386c.363 0 .673.129.931.386.258.258.387.569.387.932l-.018.035L17.861 25a8.713 8.713 0 0 1-.773 3.55 9.308 9.308 0 0 1-2.04 2.936 9.567 9.567 0 0 1-2.988 2.004 9.04 9.04 0 0 1-3.585.72 9.21 9.21 0 0 1-4.079-.948A9.267 9.267 0 0 1 1.11 30.66a1.304 1.304 0 0 1-.298-.844c0-.363.128-.673.386-.931a1.27 1.27 0 0 1 .932-.387c.445 0 .797.176 1.055.527a6.61 6.61 0 0 0 2.355 1.864c.961.457 1.94.685 2.936.685a6.333 6.333 0 0 0 3.34-.914 6.873 6.873 0 0 0 2.443-2.408 6.333 6.333 0 0 0 .967-3.287l.017-2.637a14.199 14.199 0 0 1-2.707 2.127c-1.02.621-2.098.932-3.234.932a7.808 7.808 0 0 1-3.375-.739 8.865 8.865 0 0 1-2.707-2.039 9.611 9.611 0 0 1-1.81-2.918 9.324 9.324 0 0 1-.651-3.445c0-1.195.21-2.338.633-3.428A9.61 9.61 0 0 1 3.2 9.9a8.506 8.506 0 0 1 2.707-2.039A7.695 7.695 0 0 1 9.3 7.105Zm5.89 9.141a6.755 6.755 0 0 0-.774-3.181 6.353 6.353 0 0 0-2.092-2.391c-.89-.621-1.898-.932-3.023-.932-1.137 0-2.15.31-3.041.932a6.561 6.561 0 0 0-2.092 2.39 6.882 6.882 0 0 0-.756 3.182 6.82 6.82 0 0 0 .774 3.182 6.713 6.713 0 0 0 2.091 2.408c.891.61 1.899.914 3.024.914s2.127-.305 3.006-.914a6.648 6.648 0 0 0 2.109-2.408 6.824 6.824 0 0 0 .774-3.182Zm15.468-9.281c1.23 0 2.38.246 3.445.738a8.725 8.725 0 0 1 2.795 2.04 9.32 9.32 0 0 1 1.881 2.935 9.038 9.038 0 0 1 .686 3.498c0 1.629-.387 3.14-1.16 4.535a9.504 9.504 0 0 1-3.147 3.393c-1.312.855-2.789 1.289-4.43 1.3-1.664 0-3.164-.427-4.5-1.283a9.451 9.451 0 0 1-3.181-3.375 9.33 9.33 0 0 1-1.16-4.57c0-1.219.222-2.38.668-3.48a9.691 9.691 0 0 1 1.88-2.954 8.785 8.785 0 0 1 2.778-2.039 8.121 8.121 0 0 1 3.445-.738Zm0 2.637c-1.148 0-2.185.304-3.111.914a6.736 6.736 0 0 0-2.215 2.408 6.59 6.59 0 0 0-.809 3.217c0 1.172.27 2.261.809 3.27a6.637 6.637 0 0 0 2.215 2.442c.937.61 1.992.915 3.164.915 1.16-.012 2.197-.323 3.111-.932a6.734 6.734 0 0 0 2.197-2.426c.54-.996.81-2.074.81-3.234a6.58 6.58 0 0 0-.827-3.235 6.496 6.496 0 0 0-2.215-2.425c-.926-.61-1.969-.914-3.129-.914Zm21.094-2.637c1.23 0 2.379.246 3.445.738a8.726 8.726 0 0 1 2.795 2.04 9.32 9.32 0 0 1 1.881 2.935 9.036 9.036 0 0 1 .686 3.498c0 1.629-.387 3.14-1.16 4.535a9.502 9.502 0 0 1-3.147 3.393c-1.313.855-2.79 1.289-4.43 1.3-1.664 0-3.164-.427-4.5-1.283a9.452 9.452 0 0 1-3.181-3.375 9.332 9.332 0 0 1-1.16-4.57c0-1.219.222-2.38.667-3.48a9.692 9.692 0 0 1 1.881-2.954 8.786 8.786 0 0 1 2.778-2.039 8.122 8.122 0 0 1 3.445-.738Zm0 2.637c-1.149 0-2.186.304-3.111.914a6.736 6.736 0 0 0-2.215 2.408 6.589 6.589 0 0 0-.809 3.217c0 1.172.27 2.261.809 3.27a6.636 6.636 0 0 0 2.215 2.442c.937.61 1.992.915 3.164.915 1.16-.012 2.197-.323 3.111-.932a6.734 6.734 0 0 0 2.197-2.426 6.69 6.69 0 0 0 .809-3.234c0-1.16-.275-2.238-.826-3.235a6.495 6.495 0 0 0-2.215-2.425c-.926-.61-1.969-.914-3.129-.914Zm20.514 15.767c-1.594 0-3.006-.422-4.237-1.265-1.23-.844-2.197-1.952-2.9-3.323a9.674 9.674 0 0 1-1.055-4.447c0-1.195.205-2.35.615-3.463a9.538 9.538 0 0 1 1.74-2.97 8.505 8.505 0 0 1 2.655-2.092c1.02-.516 2.133-.774 3.34-.774 1.148 0 2.197.287 3.146.861a12 12 0 0 1 2.496 1.987V1.938c0-.364.13-.674.387-.932a1.27 1.27 0 0 1 .932-.387c.375 0 .685.129.931.387.258.258.387.568.387.931v22.131c0 .364-.129.674-.387.932a1.27 1.27 0 0 1-.931.387c-.364 0-.662-.13-.897-.387a1.377 1.377 0 0 1-.334-.932l-.088-1.687c-.668.68-1.494 1.348-2.478 2.004-.984.656-2.092.984-3.322.984Zm.052-2.637c1.196 0 2.221-.322 3.076-.966a6.282 6.282 0 0 0 1.97-2.496c.456-1.02.685-2.08.685-3.182a7.226 7.226 0 0 0-.686-3.111 5.903 5.903 0 0 0-1.933-2.373c-.844-.622-1.858-.932-3.041-.932-1.137 0-2.127.328-2.971.984-.844.645-1.5 1.483-1.969 2.514a7.613 7.613 0 0 0-.703 3.217c0 1.113.229 2.156.686 3.129a6.136 6.136 0 0 0 1.95 2.338c.845.585 1.823.878 2.936.878Zm14.15-18.421c-.503 0-.949-.182-1.335-.545a1.768 1.768 0 0 1-.563-1.319c0-.515.188-.955.563-1.318a1.894 1.894 0 0 1 1.336-.545c.515 0 .96.182 1.336.545.375.363.562.803.562 1.318 0 .516-.187.955-.562 1.319-.375.363-.82.545-1.336.545Zm-1.282 3.814c0-.305.14-.568.421-.791.282-.234.545-.352.791-.352.41 0 .75.123 1.02.37.27.246.404.568.404.966l.035 15.768c0 .363-.129.674-.386.932a1.27 1.27 0 0 1-.932.386c-.363 0-.674-.134-.932-.404a1.27 1.27 0 0 1-.386-.932l-.035-15.943Zm16.154 17.227c-1.7 0-3.24-.422-4.623-1.266a9.402 9.402 0 0 1-3.27-3.375c-.808-1.418-1.213-2.97-1.213-4.658 0-1.606.381-3.088 1.143-4.448a9.202 9.202 0 0 1 3.129-3.304c1.312-.832 2.777-1.248 4.394-1.248 1.489 0 2.854.369 4.096 1.107a8.441 8.441 0 0 1 3.006 2.988c.762 1.243 1.143 2.625 1.143 4.149 0 .539-.1 1.002-.299 1.389-.188.386-.539.58-1.055.58H94.994a7.08 7.08 0 0 0 1.143 2.707 6.864 6.864 0 0 0 2.197 1.986c.89.504 1.881.756 2.971.756a6.45 6.45 0 0 0 2.724-.615 5.975 5.975 0 0 0 2.198-1.688c.257-.34.603-.51 1.037-.51.363 0 .674.13.931.387.258.258.387.568.387.932 0 .316-.105.603-.316.861a8.738 8.738 0 0 1-3.112 2.408 8.842 8.842 0 0 1-3.814.862Zm5.115-10.688a5.431 5.431 0 0 0-.932-2.496 5.704 5.704 0 0 0-1.968-1.81 5.314 5.314 0 0 0-2.637-.669c-.996 0-1.904.229-2.725.686a6.362 6.362 0 0 0-2.056 1.81 6.666 6.666 0 0 0-1.108 2.48h11.426Z"/>
  <path fill="#A3BE8C" d="M121.449 25.352c-1.23 0-2.338-.329-3.322-.985-.984-.656-1.811-1.324-2.479-2.004l-.087 1.688c0 .363-.118.674-.352.931-.223.258-.516.387-.879.387s-.674-.129-.932-.387a1.272 1.272 0 0 1-.386-.931V1.92c0-.363.129-.674.386-.932a1.27 1.27 0 0 1 .932-.386c.363 0 .674.128.932.386s.386.569.386.932v7.945a12.004 12.004 0 0 1 2.497-1.986 5.962 5.962 0 0 1 3.146-.861c1.219 0 2.332.257 3.34.773a8.51 8.51 0 0 1 2.654 2.092 9.535 9.535 0 0 1 1.74 2.97 9.92 9.92 0 0 1 .616 3.463 9.676 9.676 0 0 1-1.055 4.448c-.703 1.37-1.67 2.478-2.9 3.322-1.231.844-2.643 1.266-4.237 1.266Zm-.053-2.637c1.114 0 2.086-.293 2.918-.88a5.933 5.933 0 0 0 1.952-2.337 7.123 7.123 0 0 0 .703-3.129 7.624 7.624 0 0 0-.703-3.217c-.469-1.03-1.125-1.869-1.969-2.513-.844-.657-1.834-.985-2.971-.985-1.172 0-2.185.31-3.041.932a6.039 6.039 0 0 0-1.951 2.373 7.39 7.39 0 0 0-.668 3.111c0 1.102.229 2.162.686 3.182a6.284 6.284 0 0 0 1.968 2.496c.868.645 1.893.967 3.076.967Zm20.532-15.75a8.12 8.12 0 0 1 3.445.738 8.732 8.732 0 0 1 2.795 2.04 9.308 9.308 0 0 1 1.881 2.935 9.038 9.038 0 0 1 .685 3.498c0 1.629-.386 3.14-1.16 4.535a9.5 9.5 0 0 1-3.146 3.393c-1.313.855-2.789 1.289-4.43 1.3-1.664 0-3.164-.427-4.5-1.283a9.46 9.46 0 0 1-3.182-3.375 9.336 9.336 0 0 1-1.16-4.57c0-1.219.223-2.38.668-3.48a9.688 9.688 0 0 1 1.881-2.954 8.793 8.793 0 0 1 2.777-2.039 8.125 8.125 0 0 1 3.446-.738Zm0 2.637c-1.149 0-2.186.304-3.112.914a6.733 6.733 0 0 0-2.214 2.408 6.58 6.58 0 0 0-.809 3.217 6.82 6.82 0 0 0 .809 3.27 6.638 6.638 0 0 0 2.214 2.442c.938.61 1.993.915 3.164.915 1.161-.012 2.198-.323 3.112-.932a6.73 6.73 0 0 0 2.197-2.426 6.69 6.69 0 0 0 .809-3.234 6.58 6.58 0 0 0-.827-3.235 6.497 6.497 0 0 0-2.214-2.425c-.926-.61-1.969-.914-3.129-.914Zm21.093-2.637c1.231 0 2.379.246 3.446.738a8.732 8.732 0 0 1 2.795 2.04 9.343 9.343 0 0 1 1.881 2.935 9.038 9.038 0 0 1 .685 3.498c0 1.629-.387 3.14-1.16 4.535a9.494 9.494 0 0 1-3.147 3.393c-1.312.855-2.789 1.289-4.429 1.3-1.664 0-3.164-.427-4.5-1.283a9.45 9.45 0 0 1-3.182-3.375 9.336 9.336 0 0 1-1.16-4.57c0-1.219.223-2.38.668-3.48a9.688 9.688 0 0 1 1.881-2.954 8.782 8.782 0 0 1 2.777-2.039 8.123 8.123 0 0 1 3.445-.738Zm0 2.637c-1.148 0-2.185.304-3.111.914a6.736 6.736 0 0 0-2.215 2.408 6.59 6.59 0 0 0-.808 3.217 6.83 6.83 0 0 0 .808 3.27 6.64 6.64 0 0 0 2.215 2.442c.938.61 1.992.915 3.164.915 1.16-.012 2.197-.323 3.112-.932a6.74 6.74 0 0 0 2.197-2.426 6.69 6.69 0 0 0 .808-3.234c0-1.16-.275-2.238-.826-3.235a6.491 6.491 0 0 0-2.215-2.425c-.925-.61-1.968-.914-3.129-.914Zm12.674-7.665c0-.34.117-.626.352-.86a1.2 1.2 0 0 1 .879-.37c.34 0 .633.123.879.37.246.234.363.527.351.878v13.711a86.403 86.403 0 0 1 3.973-4.289c1.371-1.395 2.725-2.8 4.06-4.219a1.16 1.16 0 0 1 .897-.387c.34 0 .627.124.861.37.246.234.369.521.369.861 0 .34-.117.627-.351.861l-6.029 6.258 6.275 8.244c.176.223.264.475.264.756 0 .34-.123.633-.37.879a1.17 1.17 0 0 1-.861.352 1.17 1.17 0 0 1-.984-.493l-6.047-8.174-2.057 2.005v5.378a1.2 1.2 0 0 1-.369.88 1.17 1.17 0 0 1-.861.35 1.2 1.2 0 0 1-.879-.368 1.144 1.144 0 0 1-.352-.88V1.938Z"/>
</svg>
